<mxfile host="app.diagrams.net" modified="2023-07-12T11:07:02.761Z" agent="Mozilla/5.0 (X11; Linux x86_64) AppleWebKit/537.36 (KHTML, like Gecko) Chrome/114.0.0.0 Safari/537.36" etag="j34FL8DmqFVcrwe_Wvvt" version="21.6.2" type="github">
  <diagram name="Page-1" id="vjsjbYLXhhJ5isUq36q2">
    <mxGraphModel dx="776" dy="842" grid="0" gridSize="10" guides="1" tooltips="1" connect="1" arrows="1" fold="1" page="0" pageScale="1" pageWidth="850" pageHeight="1100" math="0" shadow="0">
      <root>
        <mxCell id="0" />
        <mxCell id="1" parent="0" />
        <mxCell id="RGvwOjo4Xa8fnRT4EmAt-1" value="&lt;div style=&quot;color: rgb(230, 237, 243); background-color: rgb(13, 17, 23); font-family: &amp;quot;Droid Sans Mono&amp;quot;, &amp;quot;monospace&amp;quot;, monospace; font-weight: normal; font-size: 14px; line-height: 19px;&quot;&gt;&lt;div&gt;&lt;span style=&quot;color: #ff7b72;&quot;&gt;const&lt;/span&gt;&lt;span style=&quot;color: #e6edf3;&quot;&gt; &lt;/span&gt;&lt;span style=&quot;color: #79c0ff;&quot;&gt;nitro&lt;/span&gt;&lt;span style=&quot;color: #e6edf3;&quot;&gt; &lt;/span&gt;&lt;span style=&quot;color: #ff7b72;&quot;&gt;=&lt;/span&gt;&lt;span style=&quot;color: #e6edf3;&quot;&gt; &lt;/span&gt;&lt;span style=&quot;color: #ff7b72;&quot;&gt;await&lt;/span&gt;&lt;span style=&quot;color: #e6edf3;&quot;&gt; &lt;/span&gt;&lt;span style=&quot;color: #d2a8ff;&quot;&gt;createNitro&lt;/span&gt;&lt;span style=&quot;color: #e6edf3;&quot;&gt;(&lt;/span&gt;&lt;span style=&quot;color: #79c0ff;&quot;&gt;nitroConfig&lt;/span&gt;&lt;span style=&quot;color: #e6edf3;&quot;&gt;);&lt;/span&gt;&lt;/div&gt;&lt;/div&gt;" style="rounded=0;whiteSpace=wrap;html=1;fontSize=16;" vertex="1" parent="1">
          <mxGeometry x="139" y="74" width="260" height="130" as="geometry" />
        </mxCell>
      </root>
    </mxGraphModel>
  </diagram>
</mxfile>
